<svg id="visual" viewBox="0 0 900 450" width="900" height="450" xmlns="http://www.w3.org/2000/svg" xmlns:xlink="http://www.w3.org/1999/xlink" version="1.1"><rect x="0" y="0" width="900" height="450" fill="#0080f9"></rect><path d="M0 222L21.5 227.3C43 232.7 86 243.3 128.8 241.8C171.7 240.3 214.3 226.7 257.2 224C300 221.3 343 229.7 385.8 222.2C428.7 214.7 471.3 191.3 514.2 193.2C557 195 600 222 642.8 231.7C685.7 241.3 728.3 233.7 771.2 227C814 220.3 857 214.7 878.5 211.8L900 209L900 0L878.5 0C857 0 814 0 771.2 0C728.3 0 685.7 0 642.8 0C600 0 557 0 514.2 0C471.3 0 428.7 0 385.8 0C343 0 300 0 257.2 0C214.3 0 171.7 0 128.8 0C86 0 43 0 21.5 0L0 0Z" fill="#00fff7"></path><path d="M0 136L21.5 141C43 146 86 156 128.8 169.2C171.7 182.3 214.3 198.7 257.2 202.7C300 206.7 343 198.3 385.8 191.3C428.7 184.3 471.3 178.7 514.2 170.5C557 162.3 600 151.7 642.8 158.5C685.7 165.3 728.3 189.7 771.2 188.7C814 187.7 857 161.3 878.5 148.2L900 135L900 0L878.5 0C857 0 814 0 771.2 0C728.3 0 685.7 0 642.8 0C600 0 557 0 514.2 0C471.3 0 428.7 0 385.8 0C343 0 300 0 257.2 0C214.3 0 171.7 0 128.8 0C86 0 43 0 21.5 0L0 0Z" fill="#0bffda"></path><path d="M0 182L21.5 181.3C43 180.7 86 179.3 128.8 175C171.7 170.7 214.3 163.3 257.2 151.3C300 139.3 343 122.7 385.8 123.8C428.7 125 471.3 144 514.2 154.2C557 164.3 600 165.7 642.8 162.2C685.7 158.7 728.3 150.3 771.2 144C814 137.7 857 133.3 878.5 131.2L900 129L900 0L878.5 0C857 0 814 0 771.2 0C728.3 0 685.7 0 642.8 0C600 0 557 0 514.2 0C471.3 0 428.7 0 385.8 0C343 0 300 0 257.2 0C214.3 0 171.7 0 128.8 0C86 0 43 0 21.5 0L0 0Z" fill="#4affb6"></path><path d="M0 84L21.5 84.2C43 84.3 86 84.7 128.8 87.8C171.7 91 214.3 97 257.2 98.7C300 100.3 343 97.7 385.8 94.2C428.7 90.7 471.3 86.3 514.2 91.8C557 97.3 600 112.7 642.8 122.8C685.7 133 728.3 138 771.2 136.3C814 134.7 857 126.3 878.5 122.2L900 118L900 0L878.5 0C857 0 814 0 771.2 0C728.3 0 685.7 0 642.8 0C600 0 557 0 514.2 0C471.3 0 428.7 0 385.8 0C343 0 300 0 257.2 0C214.3 0 171.7 0 128.8 0C86 0 43 0 21.5 0L0 0Z" fill="#7aff8d"></path><path d="M0 64L21.5 61.8C43 59.7 86 55.3 128.8 59.3C171.7 63.3 214.3 75.7 257.2 80.7C300 85.7 343 83.3 385.8 85.8C428.7 88.3 471.3 95.7 514.2 92C557 88.3 600 73.7 642.8 65C685.7 56.3 728.3 53.7 771.2 53.5C814 53.3 857 55.7 878.5 56.8L900 58L900 0L878.5 0C857 0 814 0 771.2 0C728.3 0 685.7 0 642.8 0C600 0 557 0 514.2 0C471.3 0 428.7 0 385.8 0C343 0 300 0 257.2 0C214.3 0 171.7 0 128.8 0C86 0 43 0 21.5 0L0 0Z" fill="#acff5b"></path><path d="M0 63L21.5 62.7C43 62.3 86 61.7 128.8 54.8C171.7 48 214.3 35 257.2 35.5C300 36 343 50 385.8 50.7C428.7 51.3 471.3 38.7 514.2 36.2C557 33.7 600 41.3 642.8 43.7C685.7 46 728.3 43 771.2 41.5C814 40 857 40 878.5 40L900 40L900 0L878.5 0C857 0 814 0 771.2 0C728.3 0 685.7 0 642.8 0C600 0 557 0 514.2 0C471.3 0 428.7 0 385.8 0C343 0 300 0 257.2 0C214.3 0 171.7 0 128.8 0C86 0 43 0 21.5 0L0 0Z" fill="#e1ff08"></path></svg>